<?xml version="1.0" encoding="utf-8"?>
<!-- Generator: Adobe Illustrator 27.5.0, SVG Export Plug-In . SVG Version: 6.00 Build 0)  -->
<svg version="1.1" xmlns="http://www.w3.org/2000/svg" xmlns:xlink="http://www.w3.org/1999/xlink" x="0px" y="0px"
	 viewBox="0 0 500 500" style="enable-background:new 0 0 500 500;" xml:space="preserve">
<g id="BACKGROUND">
	<rect style="fill:#FFFFFF;" width="500" height="500"/>
</g>
<g id="OBJECTS">
	<g>
		<path style="fill:#B1BDCC;" d="M93.936,62.121c-8.079,8.228-15.413,18.04-21.829,29.626
			c-18.857,34.051-23.137,75.02-16.362,113.35s24.023,74.219,45.785,106.491c17.171,25.465,37.408,49.135,61.831,67.759
			c38.595,29.433,85.917,45.51,133.02,28.204c28.869-10.607,56.374-31.92,78.883-52.554c22.998-21.083,42.279-46.226,56.572-73.963
			c9.832-19.081,17.427-39.87,17.536-61.335c0.135-26.398-11.102-51.742-26.114-73.456c-25.283-36.569-61.445-64.829-101.255-84.622
			C250.948,26.294,152.72,2.255,93.936,62.121z"/>
		<ellipse style="fill:#B1BDCC;" cx="254.071" cy="458.525" rx="234.643" ry="12.522"/>
	</g>
	<g>
		<g>
			<path style="fill:#3D5A80;" d="M195.402,188.807l11.594-11.941l-11.08-15.389c3.507-5.628,5.887-11.747,7.156-18.045l18.627-3.6
				l-0.246-16.642l-18.725-3.048c-1.454-6.258-4.014-12.303-7.686-17.826l10.621-15.709l-11.941-11.594l-15.388,11.08
				c-5.629-3.507-11.747-5.888-18.045-7.156l-3.6-18.627l-16.642,0.246l-3.048,18.725c-6.258,1.454-12.304,4.014-17.826,7.686
				l-15.709-10.621L91.869,88.289l11.081,15.389c-3.507,5.628-5.888,11.747-7.156,18.045l-18.627,3.6l0.246,16.642l18.725,3.048
				c1.453,6.257,4.014,12.304,7.686,17.826l-10.621,15.709l11.941,11.593l15.388-11.08c5.629,3.507,11.747,5.888,18.045,7.156
				l3.6,18.627l16.642-0.246l3.048-18.725c6.258-1.454,12.303-4.014,17.826-7.686L195.402,188.807z M126.992,157.741
				c-13.897-12.394-15.116-33.707-2.722-47.605c12.394-13.897,33.707-15.116,47.604-2.722c13.898,12.394,15.116,33.707,2.722,47.604
				C162.202,168.916,140.889,170.135,126.992,157.741z"/>
			
				<rect x="135.147" y="92.973" transform="matrix(0.7463 0.6656 -0.6656 0.7463 127.9829 -62.2908)" style="fill:#3D5A80;" width="21.125" height="87.559"/>
		</g>
		<path style="fill:#3D5A80;" d="M319.684,371.384l8.94-12.068l-11.751-12.437c2.463-5.454,3.86-11.211,4.241-16.995l16.229-5.448
			l-2.211-14.855l-17.112-0.485c-2.049-5.423-5.062-10.524-9.007-15.024l7.62-15.321l-12.068-8.94l-12.437,11.751
			c-5.454-2.463-11.211-3.86-16.996-4.241l-5.448-16.229l-14.855,2.211l-0.485,17.112c-5.423,2.049-10.524,5.062-15.024,9.007
			l-15.321-7.619l-8.94,12.067l11.752,12.438c-2.463,5.454-3.86,11.211-4.241,16.996l-16.229,5.448l2.211,14.855l17.112,0.485
			c2.049,5.423,5.063,10.524,9.007,15.024l-7.619,15.321l12.067,8.94l12.437-11.751c5.454,2.463,11.211,3.86,16.996,4.241
			L274,392.095l14.855-2.211l0.486-17.112c5.423-2.049,10.524-5.062,15.023-9.007L319.684,371.384z M254.782,351.784
			c-13.912-9.422-17.553-28.338-8.131-42.251c9.422-13.913,28.339-17.553,42.251-8.131c13.913,9.422,17.553,28.338,8.131,42.251
			C287.611,357.566,268.694,361.206,254.782,351.784z"/>
		<g>
			<g>
				<path style="fill:#E0FBFC;" d="M342.842,190.78c0-49.319-38.455-89.656-87.017-92.663
					c-56.855-3.52-103.898,45.385-98.198,102.064c2.79,27.742,17.795,51.878,39.554,66.956c9.693,6.717,15.602,17.648,15.602,29.441
					v0c0,19.656,15.934,35.59,35.59,35.59h3.254c19.656,0,35.59-15.934,35.59-35.59v-0.003c0-11.751,5.839-22.69,15.506-29.371
					C326.96,250.453,342.842,222.473,342.842,190.78z"/>
				<path style="fill:#FFFFFF;" d="M333.339,207.534c-9.442,0.645-18.501,5.62-24.112,13.24c-6.243,8.48-9.286,23.664-3.752,33.203
					c2.386,0.648,3.853-0.313,5.757-1.889C324.199,241.359,332.136,224.32,333.339,207.534z"/>
				<path style="fill:#FFFFFF;" d="M209.5,146.633c-2.566,9.494-8.282,18.064-15.928,24.228
					c-6.121,5.193-31.345,17.148-30.368,1.463c1.364-16.783,25.367-54.611,42.988-56.209
					C213.255,123.539,211.488,137.198,209.5,146.633z"/>
				<path style="fill:none;stroke:#1F2631;stroke-width:2;stroke-linecap:round;stroke-linejoin:round;stroke-miterlimit:10;" d="
					M231.512,287.179c3.489-30.721,2.403-62.235-6.123-91.954c-1.172-4.085-2.557-8.264-5.405-11.418
					c-2.848-3.154-7.539-5.021-11.463-3.391c-4.378,1.818-6.23,7.537-4.709,12.028c1.521,4.49,5.66,7.699,10.127,9.289
					c4.466,1.59,9.287,1.801,14.024,1.996c14.176,0.585,28.445,1.165,42.493-0.825c6.94-0.983,14.235-2.836,19.008-7.97
					c2.099-2.258,3.624-5.185,3.647-8.268c0.023-3.083-1.686-6.261-4.533-7.444c-3.974-1.651-8.486,0.911-11.389,4.088
					c-6.599,7.222-8.686,17.365-10.514,26.975c-5.011,26.332-10.023,53.477-4.642,79.736"/>
			</g>
			<g>
				<path style="fill:#EE6C4D;" d="M207.218,278.658h85.563v29.402c0,23.628-19.154,42.782-42.782,42.782l0,0
					c-23.628,0-42.782-19.154-42.782-42.782V278.658z"/>
				<polygon style="fill:#B3513A;" points="292.782,281.295 207.218,289.838 292.782,289.838 				"/>
				<polygon style="fill:#B3513A;" points="292.782,296.295 207.218,304.838 292.782,304.838 				"/>
				<polygon style="fill:#B3513A;" points="292.515,313.063 209.584,321.605 290.592,321.605 				"/>
			</g>
		</g>
	</g>
	<g>
		<g>
			<path style="fill:#B3513A;" d="M121.338,274.641c-4.634,2.148-9.678,3.204-14.605,2.116c-4.453-0.984-8.489-3.738-11.029-7.526
				c-2.464-3.676-3.719-8.883-2.984-13.283c0.71-4.251,5.407-3.232,8.421-2.627c3.923,0.788,7.241,2.485,11.371,2.576
				c4.194,0.092,8.417-0.846,12.145-2.778c4.405-2.282,8.074-5.926,10.464-10.267c2.482-4.509,5.071-8.817,6.816-13.718
				c2.436,1.631,8.146,3.243,7.825,6.565c-0.437,4.513-2.32,9.267-4.199,13.35c-3.869,8.407-9.82,15.871-17.256,21.396
				C126.152,272.047,123.803,273.498,121.338,274.641z"/>
			<g>
				<path style="fill:#A67C52;" d="M138.552,223.475c0.032-0.344,0.1-0.681,0.224-1.005c0.325-0.844,1.16-1.566,2.057-1.452
					c0.847,0.107,1.454,0.899,1.721,1.71c0.424,1.287,0.3,2.587,0.543,3.909c0.052,0.283,0.15,0.609,0.42,0.71
					c0.342,0.128,0.675-0.191,0.903-0.476c2-2.515,4-5.03,5.999-7.545c0.325-0.409,0.661-0.827,1.11-1.093
					c0.449-0.267,1.044-0.353,1.488-0.077c0.648,0.402,1.192,2.685,0.315,3.102c0.727-0.346,1.62-0.424,2.327-0.038
					c0.707,0.385,1.137,1.299,0.832,2.044c0.835-0.26,1.821,0.087,2.309,0.813c0.487,0.726,0.436,1.77-0.121,2.445
					c0.547-0.159,1.117,0.326,1.249,0.88c0.132,0.554-0.054,1.132-0.272,1.659c-1.951,4.71-6.725,8.819-11.475,10.49
					c-1.396,0.491-2.267-0.173-3.505-0.703c-1.418-0.607-2.582-1.676-3.771-2.63c-1.59-1.276-1.775-3.788-1.917-5.658
					c-0.136-1.801-0.272-3.602-0.408-5.403C138.54,224.598,138.5,224.028,138.552,223.475z"/>
				<g>
					<path style="fill:#754C24;" d="M147.249,227.729c0.568,0.273,1.178-0.258,1.586-0.739c0.966-1.14,1.932-2.28,2.899-3.419
						c0.469-0.553,0.938-1.106,1.407-1.659c0.318-0.375,0.858-0.825,1.015-1.286c-1.134-0.128-2.755,1.797-3.443,2.502
						c-0.678,0.696-1.312,1.436-1.896,2.213C148.444,225.837,147.249,227.099,147.249,227.729z"/>
					<path style="fill:#754C24;" d="M149.787,229.407c0.111,0.227,0.419,0.294,0.658,0.215c0.239-0.079,0.424-0.267,0.598-0.449
						c1.015-1.062,1.99-2.162,2.923-3.297c0.747-0.908,1.806-1.941,2.286-3.012c-0.922,0.496-1.736,1.631-2.452,2.375
						C152.462,226.628,151.125,228.017,149.787,229.407z"/>
					<path style="fill:#754C24;" d="M153.776,230.286c-0.469,0.432-0.959,0.898-1.129,1.513c0.692,0.003,1.292-0.456,1.807-0.919
						c1.488-1.338,3.204-3.107,3.992-4.973C156.812,227.222,155.325,228.859,153.776,230.286z"/>
				</g>
			</g>
		</g>
		<path style="fill:#1F2631;" d="M117.847,244.282c0.111,0.279,0.179,0.575,0.189,0.894c0.053,1.574-1.373,2.775-2.752,3.536
			c-5.28,2.913-11.585,3.144-17.615,3.084c-0.93-0.009-1.897-0.032-2.731-0.445c-3.003-1.486-1.465-8.411-0.777-10.877
			c0.4-1.435,0.922-2.855,1.025-4.341c0.158-2.268-1.34-4.831-2.417-6.773c-1.413-2.547-3.245-4.874-4.333-7.575
			c-1.553-3.852-1.442-8.342,0.298-12.113c1.552-3.363,4.725-6.729,8.355-7.846c4.995-1.537,10.283,1.618,11.554,6.551
			c0.737,2.861,0.478,5.869,0.566,8.822c0.088,2.953,0.615,6.083,2.586,8.285c1.294,1.445,3.188,2.477,3.816,4.311
			c1.142,3.333-2.61,7.051-1.135,10.25C115.233,241.684,117.222,242.708,117.847,244.282z"/>
		<g>
			<path style="fill:#EE6C4D;" d="M104.825,456.779c2.436-0.172,4.894-0.021,7.291,0.446c0.17-0.629,0.453-1.15,0.688-1.737
				c0.227-0.568,0.199-1.181,0.428-1.75c0.232-0.576,0.765-1.078,1.387-1.076c0.689,0.002,1.216,0.578,1.705,1.063
				c2.153,2.133,5.184,3.196,8.198,3.51c3.014,0.314,6.053-0.054,9.062-0.423c0.453-0.055,0.945-0.13,1.255-0.465
				c0.402-0.435,0.329-1.121,0.156-1.687c-1.535-5.032-6.689-4.629-10.832-5.708c-2.336-0.608-4.654-1.707-6.102-3.638
				c-0.99-1.32-1.553-2.993-2.848-4.017c-1.429-1.13-3.486-1.194-5.2-0.578c-2.309,0.828-4.832,2.466-4.942,5.039
				C104.913,449.428,104.906,453.109,104.825,456.779z"/>
			<g>
				<path style="fill:#2E4460;" d="M104.509,318.719c5.995,19.942,9.974,40.486,11.901,61.219
					c1.701,18.303,1.155,36.896,1.266,55.34c0.018,2.944,0.105,6.065-2.48,7.655c-0.821,0.505-10.495,2.737-10.668,2.294
					c-3.409-8.757-7.27-18.078-8.029-27.532c-0.747-9.299,1.418-18.626,0.075-27.905c-0.585-4.044-1.841-7.97-3.451-11.725
					c-3.507-8.179-8.659-15.528-12.998-23.298c-4.339-7.77-7.941-16.292-7.881-25.191C83.378,326.639,93.803,322.92,104.509,318.719
					z"/>
				<path style="fill:none;stroke:#1F2631;stroke-linecap:round;stroke-linejoin:round;stroke-miterlimit:10;" d="M110.258,370.692
					c-1.551,1.864-2.415,4.286-2.396,6.711c0.019,2.425,0.923,4.833,2.503,6.672"/>
			</g>
		</g>
		<g>
			<path style="fill:#EE6C4D;" d="M29.829,456.779c2.475-0.175,4.816,0.177,7.258,0.408c0.651-1.002-0.097-2.523,0.25-3.68
				c0.256-0.853,0.969-1.635,1.859-1.682c0.769-0.04,1.465,0.463,1.975,1.041c1.285,1.457,1.953,3.605,3.741,4.365
				c0.756,0.321,1.603,0.332,2.424,0.338c3.861,0.028,7.722,0.056,11.583,0.084c0.471,0.003-0.338-3.566-0.483-3.916
				c-0.548-1.327-1.495-2.512-2.675-3.328c-1.543-1.068-3.411-1.531-5.205-2.081c-1.794-0.55-3.632-1.257-4.882-2.658
				c-1.25-1.4-1.7-3.68-0.537-5.154c-2.594-0.929-5.187-1.859-7.781-2.788c-0.646-0.231-1.338-0.466-2.004-0.301
				c-0.817,0.202-1.369,0.945-1.815,1.659c-1.848,2.956-3.069,6.298-3.589,9.743C29.864,449.384,29.668,456.782,29.829,456.779z"/>
			<g>
				<path style="fill:#3D5A80;" d="M57.006,319.375c-8.266,11.453-6.81,26.056-5.151,39.271c1.236,9.852,3.316,19.383-0.785,28.92
					c-2.845,6.616-7.775,12.12-11.097,18.51c-5.296,10.188-6.229,22.005-7.062,33.457c2.187,1.465,8.932,6.203,11.787,4.773
					c0.782-0.391,1.297-1.154,1.775-1.887c9.429-14.476,17.667-29.727,24.609-45.547c1.753-3.995,3.422-8.026,5.009-12.09
					c1.374-3.52,1.55-6.737,2.344-10.377c1.892-8.669,2.812-17.504,3.342-26.351c0.485-8.094,0.642-16.201,0.937-24.303
					L57.006,319.375z"/>
				<path style="fill:none;stroke:#1F2631;stroke-linecap:round;stroke-linejoin:round;stroke-miterlimit:10;" d="M71.725,375.299
					c-3.092,2.501-4.496,6.907-3.423,10.736"/>
			</g>
		</g>
		<path style="fill:#EE6C4D;" d="M103.541,302.576c-0.728-7.141-0.307-14.399,1.281-21.4c0.843-3.716,2.009-7.369,2.519-11.146
			c1.197-8.87-2.54-15.431-11.126-18.167c-9.085-2.894-21.898-3.326-28.259,4.944c-6.245,8.121-7.094,19.734-6.61,29.629
			c0.537,10.996-2.801,22.498-7.438,32.446c-0.71,1.522-1.474,3.052-1.742,4.71c-1.476,9.109,18.72,10.601,24.678,10.606
			c8.977,0.007,17.861-2.156,26.205-5.466c1.275-0.506,2.584-1.069,3.498-2.091c2.337-2.611,1.099-6.671-0.003-9.997
			C105.031,312.084,104.029,307.357,103.541,302.576z"/>
		<g>
			<g>
				<path style="fill:#A67C52;" d="M81.615,242.906c-0.457,2.52-0.914,5.039-1.371,7.559c-0.088,0.486-0.176,0.989-0.061,1.469
					c0.198,0.829,0.944,1.4,1.679,1.831c3.317,1.943,7.472,2.394,11.128,1.207c1.117-0.363,2.297-0.988,2.653-2.108
					c0.167-0.526,0.126-1.092,0.083-1.641c-0.352-4.51-0.703-9.021-1.055-13.531c-0.222-2.842-0.69-5.82-3.275-7.492
					c-1.814-1.174-4.425-1.243-6.02,0.214c-0.93,0.85-1.412,2.072-1.827,3.261c-0.904,2.593-1.227,5.345-1.717,8.048
					C81.758,242.116,81.687,242.511,81.615,242.906z"/>
				<path style="fill:#754C24;" d="M91.171,247.493c0.449,0.011,0.895-0.055,1.329-0.219c1.832-0.696,2.661-2.954,2.367-4.892
					c-0.589-3.879-4.065-7.745-8.153-7.773c-3.952-0.028-4.248,4.029-2.902,6.986c0.775,1.702,2.074,3.126,3.55,4.275
					C88.462,246.725,89.825,247.458,91.171,247.493z"/>
			</g>
			<g>
				<path style="fill:#3D5A80;" d="M87.096,253.26c0.758,0.617,1.543,1.202,2.35,1.752c0.265,0.181,0.546,0.363,0.865,0.397
					c0.38,0.041,0.749-0.135,1.073-0.338c1.3-0.813,2.239-2.111,2.872-3.508c0.343-0.756,0.609-1.548,0.828-2.348
					c0.083-0.303,0.477-1.479,0.339-1.765c1.084,2.186,2.181,4.406,2.63,6.805c0.449,2.398,0.176,5.039-1.282,6.996
					c-1.148-0.932-2.295-1.863-3.443-2.795c-0.784-0.636-2.304-2.375-3.231-2.264c-0.571,0.068-1.433,0.805-1.943,1.09
					c-0.646,0.362-1.292,0.724-1.938,1.085c-0.403,0.226-3.553,1.655-3.553,1.99c-0.337,0.189-0.705,0.384-1.088,0.334
					c-0.542-0.07-0.896-0.593-1.146-1.078c-2.115-4.097-1.949-9.283,0.424-13.236c0.155,0.914,0.936,1.524,1.508,2.209
					c0.684,0.818,1.406,1.605,2.162,2.356C85.34,251.758,86.2,252.531,87.096,253.26z"/>
				<path style="fill:#3D5A80;" d="M89.445,270.121c0.506,0.462,1.376,0.23,1.812-0.299c0.436-0.529,0.55-1.244,0.642-1.924
					c0.43-3.184,0.703-6.4,0.573-9.61c-0.069-1.706-1.44-3.278-3.32-2.425c-1.269,0.576-0.555,1.445-0.095,2.451
					C90.618,261.728,89.869,266.49,89.445,270.121z"/>
			</g>
		</g>
		<g>
			<path style="fill:#293241;" d="M203.028,285.658l0.312-10.688l-11.926-2.484c-0.78-4.188-2.307-8.12-4.438-11.654l7.264-9.787
				l-7.336-7.778l-10.195,6.68c-3.403-2.334-7.24-4.088-11.375-5.111l-1.783-12.051l-10.688-0.313l-2.484,11.926
				c-4.188,0.78-8.12,2.307-11.654,4.438l-9.787-7.264l-7.778,7.336l6.679,10.194c-2.334,3.403-4.088,7.24-5.111,11.375
				l-12.051,1.783l-0.312,10.688l11.926,2.484c0.78,4.188,2.307,8.12,4.438,11.654l-7.264,9.787l7.336,7.778l10.194-6.68
				c3.403,2.334,7.24,4.088,11.375,5.112l1.783,12.051l10.687,0.312l2.484-11.926c4.188-0.78,8.12-2.307,11.654-4.438l9.787,7.264
				l7.778-7.336l-6.68-10.194c2.334-3.404,4.088-7.24,5.112-11.375L203.028,285.658z M176.756,285.117h-13.745v13.745h-12.316
				v-13.745H136.95v-12.316h13.745v-13.745h12.316v13.745h13.745V285.117z"/>
			<g>
				<g>
					<path style="fill:#A67C52;" d="M123.156,284.075c0.412-0.453,0.841-0.919,1.401-1.167c0.56-0.248,1.291-0.219,1.703,0.235
						c0.507,0.558,0.312,1.472-0.122,2.089c-0.434,0.617-1.062,1.083-1.465,1.72c-0.403,0.638-0.5,1.589,0.085,2.065
						c0.672,0.546,1.663,0.101,2.4-0.354c1.302-0.803,2.604-1.606,3.906-2.409c0.898-0.554,2.093-1.1,2.928-0.455
						c0.504,0.39,0.657,1.109,0.54,1.735c-0.117,0.627-0.457,1.186-0.791,1.729c0.173-1.101,1.692-1.711,2.579-1.036
						c0.886,0.675,0.701,2.302-0.315,2.761c0.689-0.602,1.91-0.404,2.374,0.385c0.464,0.789,0.044,1.952-0.817,2.262
						c0.709-0.458,1.679,0.398,1.628,1.24c-0.051,0.842-0.721,1.507-1.393,2.017c-4.084,3.101-9.738,3.598-14.677,2.218
						c-2.019-0.564-4.055-1.493-5.264-3.205C114.669,291.392,120.507,286.991,123.156,284.075z"/>
					<g>
						<path style="fill:#754C24;" d="M130.344,290.58c-0.656,0.233-1.344,0.418-1.917,0.814c-0.304,0.21-0.593,0.573-0.458,0.916
							c0.087,0.219,0.329,0.346,0.564,0.364c0.235,0.017,0.467-0.054,0.691-0.13c1.121-0.377,2.215-0.865,3.165-1.569
							c0.947-0.705,1.737-1.628,2.174-2.733C133.368,289.23,131.804,290.061,130.344,290.58z"/>
						<path style="fill:#754C24;" d="M131.279,293.857c-0.313,0.077-0.697,0.211-0.728,0.532c-0.023,0.237,0.191,0.446,0.423,0.501
							c0.232,0.055,0.475-0.006,0.703-0.073c1.072-0.313,2.113-0.775,2.992-1.464c0.684-0.536,1.809-1.624,1.836-2.555
							c-0.285,0.128-0.505,0.462-0.735,0.674c-0.414,0.383-0.873,0.724-1.347,1.028C133.458,293.12,132.392,293.582,131.279,293.857
							z"/>
						<path style="fill:#754C24;" d="M133.111,296.412c-0.225,0.047-0.456,0.087-0.657,0.2c-0.2,0.113-0.367,0.318-0.361,0.547
							c0.006,0.279,0.267,0.5,0.541,0.552s0.554-0.028,0.817-0.121c1.809-0.64,3.964-2.297,4.491-4.241
							c-0.568,0.59-0.964,1.191-1.658,1.679C135.333,295.696,134.248,296.174,133.111,296.412z"/>
					</g>
				</g>
				<g>
					<path style="fill:#B3513A;" d="M118.845,290.782c-0.079-0.284-0.161-0.567-0.247-0.849c-9.883,1.786-20.951,0.02-29.485-5.429
						c-5.16-3.296-9.463-7.887-12.52-13.185c-1.315-2.281-2.349-4.705-3.295-7.154c-0.867-2.244-1.287-4.639-2.374-6.84
						c-0.318-0.644-0.709-1.313-1.361-1.614c-1.014-0.469-2.187,0.135-3.088,0.796c-4.121,3.021-6.992,7.696-7.824,12.738
						c-1.055,6.396,1.382,13.293,5.653,18.078c2.758,3.089,6.24,5.457,9.894,7.405c14.084,7.508,31.296,8.902,46.404,3.758
						C120.015,295.937,119.547,293.306,118.845,290.782z"/>
					<path style="fill:none;stroke:#1F2631;stroke-linecap:round;stroke-linejoin:round;stroke-miterlimit:10;" d="M79.86,289.452
						c2.498,0.056,4.928,1.448,6.239,3.575"/>
				</g>
			</g>
		</g>
		<g>
			<g>
				<path style="fill:#A67C52;" d="M77.229,221.592c0.131,2.078,0.554,4.126,1.164,6.114c0.486,1.583,0.575,3.216,1.1,4.799
					c1.04,3.135,3.123,5.897,5.735,7.9c3.508,2.689,7.902,4.072,12.308,4.431c2.18,0.178,4.523,0.141,6.099-1.529
					c2.025-2.147,3.365-4.338,4.144-7.232c0.741-2.752,0.888-5.667,0.385-8.475c-0.371-2.069-1.083-4.078-1.274-6.179
					c-0.178-1.95,0.133-3.935-0.165-5.874c-0.484-3.154-2.85-5.792-5.679-7.268c-3.006-1.569-6.797-2.314-10.123-1.805
					c-3.275,0.5-6.608,0.941-9.288,3.083c-2.945,2.353-4.33,6.247-4.441,10.015C77.174,220.25,77.187,220.924,77.229,221.592z"/>
				<g>
					<path style="fill:#804D1B;" d="M102.024,229.561c0.009,0.009,0.018,0.018,0.027,0.028c0.391,0.4,0.721,0.895,0.775,1.452
						c0.098,1.015-0.863,1.737-1.815,1.558c-1.089-0.204-1.922-1.145-2.312-2.182c-0.394-1.048-0.618-2.397-0.46-3.512
						c0.058-0.409,0.276-0.905,0.69-0.894c0.381,0.011,0.581,0.44,0.734,0.789c0.271,0.62,0.661,1.188,1.143,1.664
						C101.194,228.849,101.64,229.173,102.024,229.561z"/>
					<g>
						<path style="fill:#1F2631;" d="M93.152,225.738c0.201,0.442,0.633,0.823,1.117,0.792c0.503-0.032,0.897-0.512,0.954-1.013
							c0.057-0.501-0.159-0.997-0.459-1.402C93.653,222.619,92.625,224.583,93.152,225.738z"/>
						<path style="fill:none;stroke:#1F2631;stroke-linecap:round;stroke-linejoin:round;stroke-miterlimit:10;" d="M90.048,223.606
							c0.282-0.982,1.023-1.821,1.962-2.223c0.939-0.402,2.058-0.358,2.963,0.116"/>
					</g>
					<g>
						<path style="fill:#1F2631;" d="M102.936,224.577c0.122,0.578,0.593,1.045,1.078,0.94c0.392-0.085,0.702-0.518,0.805-0.992
							c0.156-0.723-0.097-2.235-0.891-2.149C103.165,222.458,102.775,223.812,102.936,224.577z"/>
						<path style="fill:none;stroke:#1F2631;stroke-linecap:round;stroke-linejoin:round;stroke-miterlimit:10;" d="
							M100.849,221.581c0.153-0.99,0.958-1.846,1.936-2.06c0.978-0.214,2.067,0.227,2.619,1.062"/>
					</g>
					<path style="fill:none;stroke:#1F2631;stroke-linecap:round;stroke-linejoin:round;stroke-miterlimit:10;" d="M103.826,235.429
						c-0.827,1.137-2.08,1.957-3.453,2.26c-1.373,0.303-2.855,0.086-4.083-0.598"/>
				</g>
			</g>
			<path style="fill:#1F2631;" d="M73.26,250.999c-2.105-0.481-4.192-1.05-6.26-1.671c-1.285-0.386-2.6-0.811-3.635-1.665
				c-1.035-0.854-1.739-2.245-1.406-3.544c0.238-0.931,0.955-1.672,1.266-2.581c0.584-1.707-0.356-3.523-0.553-5.317
				c-0.232-2.112,0.66-4.315,2.296-5.671c0.723-0.599,1.567-1.033,2.333-1.575c2.618-1.855,1.889-4.514,1.503-7.281
				c-0.666-4.777,0.744-9.808,3.796-13.542c4.754-5.817,13.835-8.189,21.018-6.573c1.654,0.372,3.32,0.98,4.523,2.176
				c1.202,1.196,1.829,3.092,1.15,4.645c-0.576,1.319-1.91,2.112-3.154,2.835c-2.482,1.444-4.976,2.995-6.794,5.217
				c-1.819,2.222-2.875,5.258-2.074,8.015c0.97,3.334,2.567,5.449,0.548,8.862c-0.894,1.511-2.07,2.891-2.584,4.57
				c-0.709,2.32-0.019,4.727,0.719,6.946c0.535,1.605,1.679,3.745,0.756,5.367c-0.601,1.056-1.754,1.71-2.943,1.965
				c-1.188,0.255-2.422,0.159-3.629,0.02C77.823,251.933,75.53,251.518,73.26,250.999z"/>
		</g>
	</g>
	<g>
		<g>
			<g>
				
					<line style="fill:none;stroke:#293241;stroke-width:5;stroke-miterlimit:10;" x1="424.33" y1="341.937" x2="381.37" y2="457.653"/>
				
					<line style="fill:none;stroke:#293241;stroke-width:5;stroke-miterlimit:10;" x1="358.694" y1="341.937" x2="315.734" y2="457.653"/>
				
					<line style="fill:none;stroke:#293241;stroke-width:5;stroke-miterlimit:10;" x1="417.012" y1="361.647" x2="351.377" y2="361.647"/>
				
					<line style="fill:none;stroke:#293241;stroke-width:5;stroke-miterlimit:10;" x1="410.613" y1="380.853" x2="344.978" y2="380.853"/>
				
					<line style="fill:none;stroke:#293241;stroke-width:5;stroke-miterlimit:10;" x1="404.214" y1="400.058" x2="338.579" y2="400.058"/>
				
					<line style="fill:none;stroke:#293241;stroke-width:5;stroke-miterlimit:10;" x1="397.832" y1="419.278" x2="332.196" y2="419.278"/>
				
					<line style="fill:none;stroke:#293241;stroke-width:5;stroke-miterlimit:10;" x1="388.634" y1="438.47" x2="322.999" y2="438.47"/>
			</g>
			<g>
				
					<line style="fill:none;stroke:#3D5A80;stroke-width:5;stroke-miterlimit:10;" x1="360.013" y1="341.937" x2="402.974" y2="457.653"/>
				
					<line style="fill:none;stroke:#3D5A80;stroke-width:5;stroke-miterlimit:10;" x1="425.649" y1="341.937" x2="468.609" y2="457.653"/>
				
					<line style="fill:none;stroke:#3D5A80;stroke-width:5;stroke-miterlimit:10;" x1="367.331" y1="361.647" x2="432.966" y2="361.647"/>
				
					<line style="fill:none;stroke:#3D5A80;stroke-width:5;stroke-miterlimit:10;" x1="373.73" y1="380.853" x2="439.365" y2="380.853"/>
				
					<line style="fill:none;stroke:#3D5A80;stroke-width:5;stroke-miterlimit:10;" x1="380.129" y1="400.058" x2="445.764" y2="400.058"/>
				
					<line style="fill:none;stroke:#3D5A80;stroke-width:5;stroke-miterlimit:10;" x1="386.512" y1="419.278" x2="452.147" y2="419.278"/>
				
					<line style="fill:none;stroke:#3D5A80;stroke-width:5;stroke-miterlimit:10;" x1="395.71" y1="438.47" x2="461.345" y2="438.47"/>
			</g>
			<rect x="334.787" y="334.812" style="fill:#EE6C4D;" width="116.226" height="14.25"/>
		</g>
		<g>
			<path style="fill:#1F2631;" d="M380.636,127.535c-11.465,2.768-23.993,0.831-34.087-5.269
				c-10.093-6.1-17.632-16.291-20.511-27.727c0.021,0.084-6.11,2.921-6.682,3.191c-2.818,1.333-2.992,1.345-2.666,4.384
				c0.452,4.208,1.782,7.279,3.991,10.942c4.939,8.188,11.615,15.331,19.487,20.767c10.361,7.154,22.757,11.325,35.335,11.889"/>
			<path style="fill:#1F2631;" d="M374.931,77.554c-3.161,1.035-5.753,3.669-6.737,6.847c-3.243,0.163-6.351,2.047-7.996,4.847
				c-1.645,2.8-1.777,6.432-0.339,9.344c-2.428,0.655-4.378,2.82-4.777,5.303c-0.399,2.483,0.775,5.15,2.876,6.532
				c-1.789,0.116-3.252,1.805-3.367,3.594c-0.115,1.789,0.954,3.532,2.468,4.493c1.514,0.961,3.402,1.208,5.18,0.973
				c0.058,2.287,1.47,4.489,3.524,5.496c2.054,1.007,4.659,0.775,6.503-0.58c1.817,2.085,4.965,2.887,7.558,1.926
				s4.458-3.621,4.477-6.386c2.775-1.134,4.972-3.596,5.785-6.482c0.813-2.886,0.223-6.132-1.553-8.548
				c2.606-1.832,4.295-4.909,4.441-8.091c0.146-3.183-1.252-6.401-3.679-8.465c0.86-1.722,0.897-3.832,0.099-5.583
				c-1.07-2.349-3.279-3.371-5.542-4.234C380.86,77.397,378.13,76.506,374.931,77.554z"/>
			<g>
				<path style="fill:#293241;" d="M367.751,334.236c-2.436-0.172-4.894-0.022-7.291,0.446c-0.169-0.629-0.453-1.15-0.687-1.737
					c-0.227-0.568-0.199-1.181-0.428-1.75c-0.232-0.576-0.765-1.078-1.387-1.076c-0.689,0.002-1.216,0.579-1.705,1.063
					c-2.153,2.133-5.184,3.196-8.198,3.51c-3.014,0.314-6.053-0.054-9.062-0.423c-0.453-0.055-0.945-0.13-1.255-0.465
					c-0.402-0.435-0.329-1.121-0.156-1.687c1.535-5.032,6.689-4.629,10.832-5.708c2.336-0.608,4.654-1.707,6.102-3.638
					c0.99-1.32,1.554-2.993,2.848-4.016c1.429-1.13,3.486-1.194,5.2-0.578c2.309,0.828,4.832,2.466,4.942,5.039
					C367.663,326.885,367.669,330.565,367.751,334.236z"/>
				<g>
					<path style="fill:#2E4460;" d="M368.066,196.176c-5.995,19.942-9.974,40.486-11.901,61.219
						c-0.963,10.356-0.601,20.747-1.37,31.082c-0.774,10.4,0.927,20.957,1.338,31.35c3.852,1.381,7.854,2.341,11.913,2.858
						c4.709-12.097,9.789-24.257,9.614-37.455c-0.112-8.441-1.22-16.924-0.12-25.294c2.633-20.034,17.451-36.707,20.984-56.602
						c-0.505,2.841-15.715-1.181-17.404-1.815C376.714,199.863,372.443,197.893,368.066,196.176z"/>
					<path style="fill:none;stroke:#1F2631;stroke-linecap:round;stroke-linejoin:round;stroke-miterlimit:10;" d="M365.364,252.039
						c1.72,4.141,1.272,9.115-1.162,12.882"/>
				</g>
			</g>
			<g>
				<path style="fill:#293241;" d="M445.058,334.236c-2.475-0.175-4.816,0.177-7.258,0.408c-0.651-1.002,0.097-2.523-0.25-3.68
					c-0.256-0.853-0.969-1.635-1.858-1.682c-0.769-0.04-1.465,0.463-1.975,1.041c-1.285,1.457-1.953,3.605-3.741,4.365
					c-0.756,0.321-1.603,0.332-2.424,0.338c-3.861,0.028-7.722,0.056-11.583,0.084c-0.471,0.003,0.338-3.566,0.483-3.916
					c0.548-1.327,1.495-2.512,2.675-3.328c1.543-1.068,3.411-1.531,5.205-2.081c1.794-0.55,3.632-1.257,4.882-2.657
					c1.25-1.4,1.7-3.68,0.537-5.154c2.594-0.929,5.187-1.859,7.781-2.788c0.646-0.231,1.338-0.466,2.004-0.301
					c0.817,0.202,1.37,0.945,1.815,1.659c1.848,2.956,3.069,6.297,3.589,9.743C445.022,326.84,445.219,334.239,445.058,334.236z"/>
				<g>
					<path style="fill:#3D5A80;" d="M417.88,196.832c8.267,11.453,6.81,26.056,5.151,39.271c-1.236,9.852-3.316,19.383,0.785,28.92
						c2.845,6.616,7.775,12.12,11.096,18.51c5.296,10.188,6.229,22.005,7.062,33.457c-2.187,1.465-8.932,6.203-11.787,4.773
						c-0.782-0.392-1.297-1.154-1.775-1.887c-9.429-14.476-17.667-29.727-24.609-45.547c-1.753-3.995-3.422-8.026-5.009-12.09
						c-1.374-3.52-1.55-6.737-2.344-10.377c-1.892-8.669-2.812-17.504-3.342-26.351c-0.485-8.093-0.643-16.201-0.937-24.303
						L417.88,196.832z"/>
					<path style="fill:none;stroke:#1F2631;stroke-linecap:round;stroke-linejoin:round;stroke-miterlimit:10;" d="M406.792,253.614
						c3.693,3.204,5.456,8.48,4.43,13.26"/>
				</g>
			</g>
			<path style="fill:#EE6C4D;" d="M371.498,180.013c0.25-3.469,0.031-6.958-0.352-10.409c-0.621-5.59-1.671-11.142-1.863-16.764
				c-0.245-7.127,1.408-13.276,4.875-19.459c2.894-5.16,12.259-6.925,17.658-6.662c6.344,0.309,12.689,3.637,15.74,9.208
				c3.436,6.272,2.3,13.959,0.96,20.984c-1.949,10.217-1.811,20.648,2.142,30.393c0.324,0.799,4.68,9.143,4.825,9.012
				c-7.071,6.396-17.681,9.998-27.159,10.365c-9.029,0.349-18.547-3.452-23.411-11.066c0.392,0.614,4.072-5.644,4.251-6.239
				C370.127,186.17,371.246,183.455,371.498,180.013z"/>
			<g>
				<path style="fill:#FABE78;" d="M393.271,120.362c0.457,2.52,0.914,5.039,1.372,7.559c0.088,0.486,0.176,0.989,0.061,1.469
					c-0.198,0.828-0.944,1.4-1.679,1.831c-3.317,1.943-7.472,2.394-11.128,1.207c-1.117-0.363-2.297-0.988-2.653-2.108
					c-0.167-0.526-0.126-1.091-0.083-1.641c0.352-4.51,0.703-9.021,1.055-13.531c0.222-2.842,0.69-5.82,3.275-7.493
					c1.814-1.174,4.425-1.243,6.02,0.214c0.93,0.85,1.412,2.072,1.827,3.261c0.904,2.593,1.227,5.345,1.717,8.048
					C393.128,119.573,393.2,119.967,393.271,120.362z"/>
				<path style="fill:#BB8F5A;" d="M383.716,124.949c-0.449,0.012-0.895-0.054-1.329-0.219c-1.832-0.696-2.661-2.954-2.367-4.892
					c0.589-3.879,4.065-7.745,8.153-7.773c3.952-0.028,4.248,4.029,2.902,6.986c-0.775,1.702-2.074,3.126-3.55,4.275
					C386.425,124.181,385.061,124.914,383.716,124.949z"/>
			</g>
			<g>
				<path style="fill:#293241;" d="M370.419,216.747c-0.202,0.198-0.427,0.371-0.681,0.513c-1.83,1.026-4.077-0.089-5.867-1.183
					c-3.744-2.29-7.96-5.403-7.816-9.789c0.059-1.804,0.888-3.481,1.7-5.093c5.074-10.074,10.85-19.945,10.85-31.623
					c0.533-10.548-4.734-21.604-0.333-31.784c1.755-4.059,6.023-10.443,10.919-10.221c0.277,4.883-0.3,9.955-0.331,14.865
					c-0.074,11.782,1.047,23.516,0.328,35.286c-0.75,12.281-3.166,24.461-7.19,36.089
					C371.633,214.864,371.197,215.985,370.419,216.747z"/>
				<path style="fill:#1F2631;" d="M362.358,193.017c3.722-0.202,7.141-3.073,7.983-6.704c1.005,0.183,2.009,0.367,3.014,0.55
					c-0.345,2.782-1.931,5.386-4.245,6.968c-2.314,1.582-5.316,2.116-8.033,1.428"/>
			</g>
			<g>
				<path style="fill:#293241;" d="M391.704,156.713c2.167,16.666,8.212,33.334,13.626,48.697c1.36,3.861,2.953,8.018,6.444,10.156
					c3.461,2.12,7.852,1.676,11.87,1.106c4.581-0.651,9.929-1.964,11.629-6.266c1.576-3.987-0.884-8.316-3.113-11.978
					c-4.433-7.283-8.309-14.905-11.587-22.776c-3.478-8.352-7.417-16.099-7.853-25.287c-0.263-5.536-0.357-11.366-3.173-16.139
					c-3.526-5.977-9.465-7.607-15.94-7.682c-2.564,4.536-3.899,9.738-3.944,14.942C389.618,146.587,391.049,151.674,391.704,156.713
					z"/>
				<path style="fill:#1F2631;" d="M422.253,199.483c0.462-1.192,0.924-2.383,1.386-3.575c-4.506-1.427-8.069-5.485-8.902-10.138
					c-0.635,0.156-2.726,0.302-3.113,0.819c-0.359,0.479,0.161,1.46,0.332,1.965c0.565,1.672,1.336,3.247,2.357,4.69
					c0.996,1.408,2.196,2.672,3.552,3.737C418.187,197.233,422.185,199.705,422.253,199.483z"/>
			</g>
			<g>
				<g>
					<path style="fill:#FABE78;" d="M397.658,99.048c-0.131,2.078-0.554,4.126-1.164,6.115c-0.486,1.582-0.575,3.216-1.1,4.799
						c-1.04,3.135-3.123,5.897-5.736,7.9c-3.509,2.69-7.902,4.072-12.308,4.431c-2.18,0.178-4.523,0.141-6.099-1.529
						c-1.414-1.499-2.561-3.243-3.409-5.119c-1.187-2.629-1.79-5.527-1.718-8.412c0.075-3.003,1.312-5.637,1.708-8.567
						c0.282-2.092,0.011-4.238,0.392-6.314c0.557-3.038,2.617-5.724,5.324-7.178c3.264-1.753,7.003-1.639,10.587-1.223
						c3.228,0.374,6.578,1.035,9.117,3.064c2.945,2.353,4.33,6.247,4.441,10.015C397.713,97.707,397.7,98.381,397.658,99.048z"/>
					<g>
						<path style="fill:#FA9257;" d="M372.862,107.017c-0.009,0.009-0.018,0.018-0.027,0.028c-0.391,0.4-0.721,0.895-0.775,1.452
							c-0.098,1.015,0.863,1.737,1.815,1.558c1.089-0.204,1.922-1.145,2.312-2.182c0.394-1.048,0.618-2.397,0.46-3.511
							c-0.058-0.41-0.276-0.905-0.69-0.894c-0.381,0.011-0.581,0.44-0.734,0.789c-0.271,0.62-0.661,1.188-1.143,1.664
							C373.692,106.306,373.247,106.629,372.862,107.017z"/>
						<g>
							<path style="fill:#1F2631;" d="M381.734,103.194c-0.202,0.442-0.633,0.823-1.117,0.792c-0.503-0.032-0.897-0.512-0.954-1.013
								c-0.057-0.501,0.159-0.998,0.459-1.402C381.233,100.076,382.261,102.039,381.734,103.194z"/>
							<path style="fill:none;stroke:#1F2631;stroke-linecap:round;stroke-linejoin:round;stroke-miterlimit:10;" d="
								M384.838,101.063c-0.282-0.982-1.023-1.821-1.962-2.223c-0.939-0.402-2.058-0.358-2.963,0.116"/>
						</g>
						<g>
							<path style="fill:#1F2631;" d="M371.95,102.034c-0.122,0.578-0.593,1.046-1.078,0.94c-0.392-0.086-0.702-0.518-0.805-0.992
								c-0.156-0.723,0.097-2.235,0.891-2.149C371.721,99.914,372.111,101.269,371.95,102.034z"/>
							<path style="fill:none;stroke:#1F2631;stroke-linecap:round;stroke-linejoin:round;stroke-miterlimit:10;" d="
								M374.038,99.038c-0.153-0.99-0.958-1.846-1.936-2.06c-0.978-0.214-2.067,0.227-2.619,1.062"/>
						</g>
						<path style="fill:none;stroke:#1F2631;stroke-linecap:round;stroke-linejoin:round;stroke-miterlimit:10;" d="
							M371.061,112.886c0.827,1.137,2.08,1.957,3.453,2.26c1.373,0.303,2.855,0.086,4.083-0.598"/>
					</g>
				</g>
				<path style="fill:#1F2631;" d="M379.252,90.019c1.576,2.368,4.626,3.662,7.423,3.139c-1.192,1.942-1.192,4.554,0.001,6.497
					c1.192,1.942,3.522,3.124,5.793,2.94c-1.342,1.26-2.703,2.544-3.637,4.131c-0.934,1.587-1.399,3.547-0.815,5.294
					c0.583,1.746,2.411,3.122,4.224,2.8c-1.871,1.23-2.845,3.683-2.328,5.861c0.517,2.179,2.488,3.933,4.712,4.192
					c2.224,0.26,4.546-0.993,5.551-2.995c2.702,2.313,7.368,1.707,9.389-1.22c2.022-2.927,0.937-7.505-2.183-9.213
					c0.467,0.256,2.171-4.245,2.282-4.68c0.483-1.875,0.564-3.856,0.247-5.765c-0.533-3.218-2.543-8.026-6.038-8.888
					c0.518-3.158-0.622-6.541-2.945-8.741c-2.323-2.2-5.764-3.154-8.888-2.465c-1.667-2.189-4.619-3.318-7.321-2.799
					c-5.068,0.973-8.417,7.361-5.51,11.845C379.222,89.975,379.237,89.997,379.252,90.019z"/>
			</g>
			<g>
				<path style="fill:#EE6C4D;" d="M354.154,130.951l0.441-10.409l-11.587-2.572c-0.707-4.09-2.144-7.941-4.175-11.411l7.202-9.442
					l-7.048-7.672l-10.017,6.378c-3.286-2.318-7.001-4.075-11.017-5.126l-1.583-11.764l-10.409-0.441l-2.572,11.587
					c-4.091,0.707-7.941,2.144-11.411,4.175l-9.442-7.202l-7.672,7.048l6.378,10.017c-2.318,3.286-4.076,7.001-5.126,11.017
					l-11.763,1.583l-0.441,10.409l11.588,2.572c0.707,4.09,2.144,7.941,4.175,11.411l-7.202,9.442l7.048,7.672l10.017-6.377
					c3.286,2.318,7.001,4.075,11.017,5.125l1.583,11.763l10.408,0.441l2.573-11.587c4.091-0.707,7.941-2.144,11.411-4.175
					l9.442,7.202l7.672-7.048l-6.377-10.017c2.318-3.286,4.075-7.001,5.125-11.017L354.154,130.951z M309.253,144.939
					c-11.656,0-21.104-9.449-21.104-21.105c0-11.656,9.449-21.105,21.104-21.105c11.656,0,21.105,9.449,21.105,21.105
					C330.358,135.49,320.909,144.939,309.253,144.939z"/>
				<g>
					<g>
						<path style="fill:#FABE78;" d="M342.722,135.215c-0.166-0.485-0.341-0.985-0.689-1.362c-0.348-0.376-0.92-0.597-1.387-0.385
							c-0.575,0.261-0.728,1.027-0.599,1.646c0.127,0.606,0.429,1.153,0.521,1.767c0.019,0.126,0.076,1.663-0.177,1.559
							c-1.988-0.818-3.739-2.202-4.995-3.946c-0.253-0.351-0.491-0.722-0.829-0.991c-0.339-0.269-0.808-0.42-1.21-0.26
							c-0.598,0.238-0.755,1.284-0.522,1.811c-0.41-0.561-0.802-1.214-1.605-1.014c-0.905,0.225-1.302,1.537-0.674,2.226
							c-0.33-0.691-1.334-0.944-1.952-0.492c-0.618,0.452-0.681,1.486-0.122,2.01c-0.392-0.587-1.422-0.251-1.663,0.413
							c-0.24,0.664,0.054,1.397,0.401,2.012c2.11,3.738,6.29,5.995,10.543,6.574c1.738,0.236,3.611,0.198,5.109-0.717
							C346.817,143.654,343.791,138.335,342.722,135.215z"/>
						<g>
							<path style="fill:#BB8F5A;" d="M336.533,139.076c0.192,0.128,0.472,0.242,0.63,0.073c0.105-0.112,0.084-0.3-0.004-0.426
								c-0.088-0.126-0.227-0.205-0.36-0.282c-1.605-0.931-2.895-2.166-4.074-3.582
								C333.577,136.548,334.965,138.033,336.533,139.076z"/>
							<path style="fill:#BB8F5A;" d="M332.773,142.743c0.12,0.084,0.267,0.169,0.404,0.117c0.143-0.055,0.193-0.245,0.145-0.39
								c-0.047-0.146-0.163-0.257-0.275-0.362c-1.509-1.414-2.97-3.076-4.624-4.311c0.342,0.861,1.07,1.745,1.658,2.458
								c0.39,0.472,0.812,0.919,1.262,1.335C331.517,141.749,332.773,142.585,332.773,142.743z"/>
							<path style="fill:#BB8F5A;" d="M333.429,140.274c0.122,0.122,0.252,0.246,0.417,0.297c0.165,0.051,0.373,0.005,0.453-0.148
								c0.108-0.208-0.068-0.444-0.232-0.612c-1.309-1.34-2.618-2.679-3.926-4.019c0.536,0.706,0.899,1.573,1.43,2.305
								c0.28,0.387,0.576,0.762,0.886,1.126C332.606,139.398,333.429,140.075,333.429,140.274z"/>
						</g>
					</g>
					<g>
						<path style="fill:#1F2631;" d="M344.264,140.806c0.183-0.227,0.349-0.449,0.566-0.639c1.734,0.861,2.719,2.122,4.649,2.781
							c2.34,0.799,4.738,1.42,7.159,1.92c4.954,1.024,9.995,1.541,15.022,2.052c2.168,0.221,4.353,0.441,6.522,0.227
							c4.245-0.42,8.087-2.475,11.559-4.837c3.581-2.436,7.198-4.68,10.85-7.016c3.493-2.235,8.573-3.806,10.339,1.202
							c1.416,4.014,0.556,8.656-1.624,12.231c-2.66,4.363-7.054,7.409-11.665,9.611c-9.947,4.749-20.264,4.933-30.833,2.67
							c-10.059-2.154-19.578-6.914-27.213-13.825C341.146,145.075,342.618,142.846,344.264,140.806z"/>
						<path style="fill:none;stroke:#293241;stroke-linecap:round;stroke-linejoin:round;stroke-miterlimit:10;" d="
							M377.929,157.094c1.306-1.889,3.356-3.248,5.604-3.715c2.248-0.467,4.67-0.037,6.62,1.176"/>
					</g>
				</g>
				<g>
					<path style="fill:#FABE78;" d="M317.029,95.25c0.065,0.827,0.224,1.65,0.45,2.448c0.148,0.522,0.335,1.055,0.711,1.446
						c0.377,0.391,0.991,0.6,1.479,0.362c0.349-0.171,0.395-0.629,0.511-0.967c0.143,0.498,0.318,0.996,0.624,1.414
						c0.306,0.418,0.762,0.75,1.277,0.803c0.371,0.038,0.771-0.092,1.033-0.361c0.313-0.321,0.275-0.843,0.27-1.264
						c0.333,0.6,0.695,1.229,1.291,1.571c0.408,0.234,0.95,0.272,1.374,0.059c0.561-0.281,0.544-1.023,0.668-1.573
						c0.099,0.329,0.228,0.663,0.471,0.906c0.243,0.243,0.626,0.375,0.942,0.238c0.454-0.197,0.544-0.792,0.545-1.287
						c0.003-1.207-0.136-2.415-0.414-3.59c0.297,0.049,0.574,0.217,0.755,0.457c-0.047-0.063,0.122-0.646,0.132-0.756
						c0.03-0.311,0.031-0.626,0.003-0.937c-0.048-0.53-0.18-1.081-0.359-1.581c-0.56-1.569-1.884-2.529-3.293-3.307
						c-1.545-0.854-3.767-1.7-5.53-1.009c-1.55,0.608-2.487,2.768-2.797,4.293C316.997,93.481,316.96,94.368,317.029,95.25z"/>
					<g>
						<path style="fill:#BB8F5A;" d="M325.159,93.848c0-0.238,0.089-0.558,0.327-0.543c0.198,0.012,0.282,0.254,0.317,0.45
							c0.172,0.971,0.345,1.942,0.517,2.913c0.084,0.474,0.168,0.948,0.252,1.422c0.072,0.404,0.238,0.892,0.212,1.298
							c-0.267-0.125-0.442-0.615-0.563-0.869c-0.234-0.491-0.431-0.999-0.59-1.519C325.322,95.98,325.159,94.914,325.159,93.848z"/>
						<path style="fill:#BB8F5A;" d="M322.451,96.594c-0.204-0.95-0.262-1.944-0.046-2.891c0.036-0.157,0.11-0.341,0.269-0.365
							c0.122-0.019,0.239,0.077,0.287,0.191c0.048,0.114,0.044,0.243,0.04,0.366c-0.028,0.923-0.001,1.848,0.081,2.768
							c0.041,0.46,0.096,0.919,0.164,1.376c0.053,0.353,0.232,0.836,0.184,1.178c-0.269-0.203-0.382-0.658-0.49-0.959
							C322.746,97.714,322.573,97.16,322.451,96.594z"/>
						<path style="fill:#BB8F5A;" d="M319.51,93.5c0.015-0.168,0.064-0.374,0.228-0.413c0.122-0.029,0.246,0.062,0.299,0.175
							c0.053,0.113,0.051,0.243,0.049,0.368c0,1.687-0.092,3.356,0.096,5.039c-0.275-0.867-0.549-1.741-0.686-2.643
							C319.363,95.157,319.51,94.359,319.51,93.5z"/>
					</g>
				</g>
			</g>
		</g>
	</g>
</g>
</svg>
